<?xml version="1.0" standalone="no"?>
<!DOCTYPE svg PUBLIC "-//W3C//DTD SVG 20010904//EN"
 "http://www.w3.org/TR/2001/REC-SVG-20010904/DTD/svg10.dtd">
<svg version="1.0" xmlns="http://www.w3.org/2000/svg"
 width="48.000000pt" height="48.000000pt" viewBox="0 0 48.000000 48.000000"
 preserveAspectRatio="xMidYMid meet">

<g transform="translate(0.000000,48.000000) scale(0.100000,-0.100000)"
fill="#000000" stroke="none">
<path d="M92 388 c-21 -21 -13 -41 40 -95 l52 -53 -59 -60 -59 -60 27 -27 27
-27 60 59 60 59 60 -59 60 -59 27 27 27 27 -59 60 -59 60 52 53 c53 54 61 74
40 95 -21 21 -41 13 -95 -40 l-53 -52 -53 52 c-54 53 -74 61 -95 40z"/>
</g>
</svg>
